# xmcd CD database file
#
# Track frame offsets:
#	150
#	14857
#	25010
#	37460
#	47830
#	59910
#	75250
#	93329
#	103600
#	123392
#	140310
#	151263
#	162244
#	173980
#	183401
#	193830
#	203220
#	216153
#	226409
#	237918
#
# Disc length: 3324 seconds
#
# Revision: 1
# Processed by: cddbd v1.5.2PL0 Copyright (c) Steve Scherf et al.
# Submitted via: CDex 1.51
#
DISCID=1d0cfa14
DTITLE=Glen Campbell - Words and Music
DYEAR=2006
DGENRE=Country
TTITLE0=Rhinestone Cowboy
TTITLE1=Gentle on My Mind
TTITLE2=By The Time I Get To Phoenix
TTITLE3=Dreams of the Everyday Housewife
TTITLE4=It's Only Make Believe
TTITLE5=Crying
TTITLE6=Southern Nights
TTITLE7=Try A Little Kindness
TTITLE8=Medley- Wichita Lineman- Galveston- Country Boy
TTITLE9=Please Come To Boston
TTITLE10=Greenfields
TTITLE11=The Man With The Golden Gun
TTITLE12=Cherry Beat
TTITLE13=Gospel Harp
TTITLE14=Shindig Hoot
TTITLE15=Greenback Dollar
TTITLE16=If I Had a Hammer
TTITLE17=Walk Right In
TTITLE18=Cotton Fields
TTITLE19=Country Shindig
EXTD=YEAR: 2006
EXTT0=
EXTT1=
EXTT2=
EXTT3=
EXTT4=
EXTT5=
EXTT6=
EXTT7=
EXTT8=
EXTT9=
EXTT10=
EXTT11=
EXTT12=
EXTT13=
EXTT14=
EXTT15=
EXTT16=
EXTT17=
EXTT18=
EXTT19=
PLAYORDER=
